<?xml version="1.0" standalone="no"?>
<!DOCTYPE svg PUBLIC "-//W3C//DTD SVG 20010904//EN"
 "http://www.w3.org/TR/2001/REC-SVG-20010904/DTD/svg10.dtd">
<svg version="1.0" xmlns="http://www.w3.org/2000/svg"
 width="1280.000000pt" height="816.000000pt" viewBox="0 0 1280.000000 816.000000"
 preserveAspectRatio="xMidYMid meet">
<metadata>
Created by potrace 1.16, written by Peter Selinger 2001-2019
</metadata>
<g transform="translate(0.000000,816.000000) scale(0.100000,-0.100000)"
fill="#000000" stroke="none">
<path d="M11280 4928 c0 -2827 0 -2833 -21 -2878 -27 -60 -74 -107 -134 -136
l-50 -24 -4835 0 -4835 0 -50 24 c-60 28 -127 99 -143 154 -9 30 -12 724 -12
2846 0 1864 -3 2806 -10 2806 -5 0 -10 -4 -10 -10 0 -5 -9 -10 -20 -10 -11 0
-20 -4 -20 -10 0 -5 -7 -10 -15 -10 -8 0 -15 -4 -15 -10 0 -5 -7 -10 -15 -10
-9 0 -18 -7 -21 -15 -4 -8 -13 -15 -20 -15 -14 0 -24 -7 -59 -37 -7 -7 -19
-13 -25 -13 -6 0 -13 -7 -16 -15 -4 -8 -12 -15 -20 -15 -8 0 -22 -9 -31 -20
-10 -11 -23 -20 -30 -20 -7 0 -13 -7 -13 -15 0 -8 -9 -15 -20 -15 -11 0 -23
-7 -27 -16 -3 -8 -16 -20 -29 -25 -13 -4 -24 -15 -24 -24 0 -9 -9 -15 -21 -15
-12 0 -23 -8 -26 -19 -3 -11 -18 -24 -34 -30 -16 -5 -29 -17 -29 -26 0 -8 -11
-20 -25 -25 -14 -5 -25 -17 -25 -28 0 -13 -11 -22 -32 -28 -25 -7 -34 -16 -36
-35 -2 -19 -11 -28 -35 -35 -24 -7 -33 -15 -35 -36 -2 -21 -11 -30 -38 -38
-29 -10 -34 -16 -34 -44 0 -30 -4 -34 -40 -45 -39 -11 -40 -13 -40 -56 0 -38
-3 -45 -20 -45 -10 0 -31 -5 -45 -12 -22 -10 -25 -17 -25 -65 0 -48 -2 -53
-22 -53 -13 0 -38 -9 -55 -20 -32 -19 -33 -22 -33 -82 l0 -63 -53 -20 -52 -20
-3 -3287 -2 -3288 6400 0 6400 0 -2 3288 -3 3287 -52 20 -53 20 0 63 c0 60 -1
63 -32 82 -18 11 -43 20 -55 20 -21 0 -23 5 -23 53 0 48 -3 55 -25 65 -14 7
-35 12 -45 12 -17 0 -20 7 -20 45 0 43 -1 45 -40 56 -36 11 -40 15 -40 45 0
28 -5 34 -34 44 -27 8 -36 17 -38 38 -2 21 -11 29 -35 36 -24 7 -33 16 -35 35
-2 19 -11 28 -35 35 -22 6 -33 15 -33 28 0 11 -11 23 -25 28 -14 5 -25 17 -25
25 0 9 -13 21 -29 26 -16 6 -31 19 -34 30 -3 11 -14 19 -26 19 -12 0 -21 6
-21 15 0 9 -11 20 -24 24 -13 5 -26 17 -29 25 -4 9 -16 16 -27 16 -11 0 -20 7
-20 15 0 8 -6 15 -13 15 -7 0 -20 9 -30 20 -9 11 -23 20 -31 20 -8 0 -16 7
-20 15 -3 8 -10 15 -16 15 -10 0 -21 8 -55 38 -7 6 -20 12 -28 12 -8 0 -17 7
-21 15 -3 8 -12 15 -21 15 -8 0 -15 5 -15 10 0 6 -7 10 -15 10 -8 0 -15 5 -15
10 0 6 -9 10 -20 10 -11 0 -20 5 -20 10 0 6 -7 10 -15 10 -8 0 -15 5 -15 10 0
6 -9 10 -20 10 -11 0 -20 5 -20 10 0 6 -52 10 -135 10 l-135 0 0 -2832z"/>
<path d="M2497 7363 c-4 -3 -7 -53 -7 -109 l0 -103 -42 15 c-53 19 -115 12
-169 -18 -138 -78 -129 -293 16 -359 48 -22 129 -24 167 -5 23 12 27 12 32 -1
4 -10 19 -13 53 -11 l48 3 3 298 2 297 -48 0 c-27 0 -52 -3 -55 -7z m-42 -307
c46 -46 45 -124 -1 -167 -32 -30 -102 -33 -132 -6 -50 46 -52 129 -5 173 36
34 104 33 138 0z"/>
<path d="M2020 7040 l0 -270 50 0 50 0 0 270 0 270 -50 0 -50 0 0 -270z"/>
<path d="M2775 7164 c-74 -41 -114 -106 -115 -187 0 -121 116 -221 235 -202
51 8 118 47 144 84 29 40 27 46 -16 59 -34 11 -40 9 -64 -14 -41 -39 -92 -49
-137 -27 -68 33 -50 45 103 73 l140 26 -3 33 c-4 49 -39 106 -85 138 -50 35
-154 43 -202 17z"/>
<path d="M3255 7165 c-76 -27 -135 -114 -135 -201 0 -49 47 -132 92 -162 50
-33 136 -41 191 -19 32 14 37 14 37 1 0 -10 13 -14 50 -14 l50 0 0 200 0 200
-49 0 c-27 0 -51 -4 -53 -10 -2 -6 -19 -4 -43 5 -51 18 -89 18 -140 0z m146
-114 c49 -49 36 -146 -22 -177 -76 -39 -148 10 -149 99 0 40 5 53 29 78 23 23
38 29 71 29 33 0 48 -6 71 -29z"/>
<path d="M3697 7166 c-52 -19 -75 -42 -83 -83 -14 -72 37 -122 156 -157 78
-23 89 -31 68 -52 -23 -23 -91 -20 -134 6 l-36 20 -28 -22 c-37 -30 -37 -38 3
-65 47 -32 82 -43 137 -43 101 0 160 45 160 123 0 56 -45 91 -165 128 -72 22
-87 36 -59 56 26 20 104 12 141 -15 l30 -21 28 29 c24 25 26 32 15 45 -42 50
-164 77 -233 51z"/>
<path d="M9877 5898 c-31 -24 -37 -68 -37 -272 0 -210 7 -258 40 -276 11 -6
121 -10 258 -10 236 0 239 0 260 23 21 23 22 31 22 263 0 238 0 241 -23 262
-23 21 -31 22 -263 22 -177 0 -245 -3 -257 -12z m440 -155 c5 -13 -21 -43
-103 -120 -60 -56 -115 -103 -122 -103 -20 0 -112 91 -112 111 0 33 20 31 68
-9 l47 -39 95 88 c52 49 101 89 108 89 7 0 16 -8 19 -17z"/>
</g>
</svg>
