<svg width="567" height="345" viewBox="0 0 567 345" fill="none" xmlns="http://www.w3.org/2000/svg">
<path d="M279.44 333.584V314.462H294.035V333.584H279.44Z" fill="#262626"/>
<path d="M264.073 339.292V339.29C264.073 336.139 267.6 333.583 271.951 333.583H302.194C306.546 333.583 310.073 336.139 310.073 339.29V339.292C310.073 342.443 306.546 345 302.194 345H271.951C267.6 345 264.073 342.443 264.073 339.292Z" fill="#262626"/>
<path d="M286.448 309.082C282.249 309.082 278.863 305.684 278.863 301.496C278.863 297.311 282.249 293.91 286.448 293.91C290.636 293.91 294.035 297.311 294.035 301.496C294.035 305.684 290.636 309.082 286.448 309.082ZM305.849 216.265H327.803C328.355 216.265 328.803 215.817 328.803 215.265V212.533C328.803 200.843 324.062 190.246 316.393 182.589C308.738 174.921 298.153 170.18 286.448 170.18C263.054 170.18 244.082 189.139 244.082 212.533V215.265C244.082 215.817 244.53 216.265 245.082 216.265H267.035C268.333 216.265 269.494 216.79 270.35 217.633C271.194 218.489 271.718 219.665 271.718 220.949C271.718 223.547 269.618 225.634 267.035 225.634H245.082C244.53 225.634 244.082 226.082 244.082 226.634V233.782C244.082 234.334 244.53 234.782 245.082 234.782H267.035C268.333 234.782 269.494 235.307 270.35 236.15C271.194 237.006 271.718 238.181 271.718 239.466C271.718 242.063 269.618 244.164 267.035 244.164H245.082C244.53 244.164 244.082 244.612 244.082 245.164V252.297C244.082 252.85 244.53 253.297 245.082 253.297H267.035C268.333 253.297 269.494 253.824 270.35 254.68C271.194 255.523 271.718 256.698 271.718 257.996C271.718 260.58 269.618 262.681 267.035 262.681H245.082C244.53 262.681 244.082 263.129 244.082 263.681V270.829C244.082 271.381 244.53 271.829 245.082 271.829H267.035C268.333 271.829 269.494 272.354 270.35 273.197C271.194 274.04 271.718 275.213 271.718 276.513C271.718 279.097 269.618 281.198 267.035 281.198H244.22C244.144 281.198 244.082 281.26 244.082 281.336V281.336C244.082 304.73 263.054 323.689 286.448 323.689C309.844 323.689 328.803 304.73 328.803 281.336V281.336C328.803 281.26 328.741 281.198 328.665 281.198H305.849C304.566 281.198 303.391 280.672 302.533 279.83C301.69 278.972 301.165 277.812 301.165 276.513C301.165 273.915 303.266 271.829 305.849 271.829H327.803C328.355 271.829 328.803 271.381 328.803 270.829V263.681C328.803 263.129 328.355 262.681 327.803 262.681H305.849C304.566 262.681 303.391 262.155 302.533 261.313C301.69 260.457 301.165 259.295 301.165 257.996C301.165 255.4 303.266 253.297 305.849 253.297H327.803C328.355 253.297 328.803 252.85 328.803 252.297V245.164C328.803 244.612 328.355 244.164 327.803 244.164H305.849C304.566 244.164 303.391 243.639 302.533 242.796C301.69 241.94 301.165 240.765 301.165 239.466C301.165 236.883 303.266 234.782 305.849 234.782H327.803C328.355 234.782 328.803 234.334 328.803 233.782V226.634C328.803 226.082 328.355 225.634 327.803 225.634H305.849C304.566 225.634 303.391 225.109 302.533 224.266C301.69 223.423 301.165 222.248 301.165 220.949C301.165 218.366 303.266 216.265 305.849 216.265Z" fill="#262626"/>
<path d="M217.961 282.357C215.032 282.357 212.658 279.983 212.658 277.054V216.818C212.658 213.887 215.032 211.513 217.961 211.513C220.891 211.513 223.267 213.887 223.267 216.818V277.054C223.267 279.983 220.891 282.357 217.961 282.357Z" fill="url(#paint0_linear)"/>
<path d="M196.743 271.845C193.813 271.845 191.437 269.47 191.437 266.541V227.326C191.437 224.397 193.813 222.022 196.743 222.022C199.672 222.022 202.048 224.397 202.048 227.326V266.541C202.048 269.47 199.672 271.845 196.743 271.845Z" fill="url(#paint1_linear)"/>
<path d="M175.524 263.671C172.593 263.671 170.219 261.296 170.219 258.366V235.504C170.219 232.574 172.593 230.199 175.524 230.199C178.453 230.199 180.828 232.574 180.828 235.504V258.366C180.828 261.296 178.453 263.671 175.524 263.671Z" fill="url(#paint2_linear)"/>
<path d="M191.436 244.937V259.551C191.436 258.08 190.849 256.756 189.886 255.794C188.924 254.843 187.588 254.242 186.128 254.242C183.195 254.242 180.83 256.621 180.83 259.551V244.937C180.83 247.869 183.195 250.246 186.128 250.246C189.059 250.246 191.436 247.869 191.436 244.937Z" fill="url(#paint3_linear)"/>
<path d="M212.661 229.813V244.938C212.661 243.477 212.071 242.152 211.11 241.191C210.158 240.229 208.822 239.639 207.362 239.639C204.43 239.639 202.053 242.017 202.053 244.938V229.813C202.053 232.746 204.43 235.122 207.362 235.122C210.294 235.122 212.661 232.746 212.661 229.813Z" fill="url(#paint4_linear)"/>
<path d="M212.661 251.991V267.115C212.661 265.654 212.071 264.329 211.11 263.367C210.158 262.405 208.822 261.816 207.362 261.816C204.43 261.816 202.053 264.193 202.053 267.115V251.991C202.053 254.921 204.43 257.3 207.362 257.3C210.294 257.3 212.661 254.921 212.661 251.991" fill="url(#paint5_linear)"/>
<path d="M154.304 255.102C151.374 255.102 149 252.727 149 249.798V244.072C149 241.141 151.374 238.766 154.304 238.766C157.234 238.766 159.609 241.141 159.609 244.072V249.798C159.609 252.727 157.234 255.102 154.304 255.102Z" fill="url(#paint6_linear)"/>
<path d="M355.514 282.357C358.443 282.357 360.817 279.983 360.817 277.054V216.818C360.817 213.887 358.443 211.513 355.514 211.513C352.584 211.513 350.208 213.887 350.208 216.818V277.054C350.208 279.983 352.584 282.357 355.514 282.357Z" fill="url(#paint7_linear)"/>
<path d="M376.732 271.845C379.663 271.845 382.038 269.47 382.038 266.541V227.326C382.038 224.397 379.663 222.022 376.732 222.022C373.803 222.022 371.428 224.397 371.428 227.326V266.541C371.428 269.47 373.803 271.845 376.732 271.845Z" fill="url(#paint8_linear)"/>
<path d="M397.951 263.671C400.882 263.671 403.256 261.296 403.256 258.366V235.504C403.256 232.574 400.882 230.199 397.951 230.199C395.022 230.199 392.647 232.574 392.647 235.504V258.366C392.647 261.296 395.022 263.671 397.951 263.671Z" fill="url(#paint9_linear)"/>
<path d="M382.039 244.937V259.551C382.039 258.08 382.627 256.756 383.589 255.794C384.551 254.843 385.887 254.242 387.347 254.242C390.28 254.242 392.645 256.621 392.645 259.551V244.937C392.645 247.869 390.28 250.246 387.347 250.246C384.416 250.246 382.039 247.869 382.039 244.937" fill="url(#paint10_linear)"/>
<path d="M360.814 229.813V244.938C360.814 243.477 361.404 242.152 362.365 241.191C363.317 240.229 364.653 239.639 366.113 239.639C369.045 239.639 371.422 242.017 371.422 244.938V229.813C371.422 232.746 369.045 235.122 366.113 235.122C363.181 235.122 360.814 232.746 360.814 229.813" fill="url(#paint11_linear)"/>
<path d="M360.814 251.991V267.115C360.814 265.654 361.404 264.329 362.365 263.367C363.317 262.405 364.653 261.816 366.113 261.816C369.045 261.816 371.422 264.193 371.422 267.115V251.991C371.422 254.921 369.045 257.3 366.113 257.3C363.181 257.3 360.814 254.921 360.814 251.991" fill="url(#paint12_linear)"/>
<path d="M419.171 255.102C422.102 255.102 424.475 252.727 424.475 249.798V244.072C424.475 241.141 422.102 238.766 419.171 238.766C416.242 238.766 413.867 241.141 413.867 244.072V249.798C413.867 252.727 416.242 255.102 419.171 255.102Z" fill="url(#paint13_linear)"/>
<path d="M382.034 225.296C382.034 227.809 381.93 230.289 381.749 232.758H371.09C371.306 230.301 371.419 227.809 371.419 225.296C371.419 191.201 351.274 161.818 322.242 148.395L322.058 148.898C320.975 151.866 317.673 153.378 314.721 152.246C306.035 148.914 296.598 147.087 286.738 147.087C276.877 147.087 267.44 148.914 258.754 152.246C255.802 153.378 252.501 151.866 251.418 148.898L251.233 148.395C222.202 161.818 202.057 191.201 202.057 225.296C202.057 227.809 202.17 230.301 202.385 232.758H191.727C191.545 230.289 191.442 227.809 191.442 225.296C191.442 172.66 234.101 130 286.738 130C339.374 130 382.034 172.66 382.034 225.296" fill="url(#paint14_linear)"/>
<g filter="url(#filter0_f)">
<rect x="70.2048" y="70.4707" width="117.922" height="34.2465" rx="10" fill="#333333"/>
<path d="M80.2714 104.717H94.6521L83.4507 114.304C81.2246 116.209 77.8679 114.12 78.5935 111.281L80.2714 104.717Z" fill="#333333"/>
</g>
<rect x="44" y="44" width="158" height="69.1244" rx="10" fill="white"/>
<path d="M57.4878 112.203H76.7561L59.4211 134.552C57.5086 137.017 53.5709 135.288 54.0929 132.211L57.4878 112.203Z" fill="white"/>
<g filter="url(#filter1_f)">
<rect width="77.2781" height="23.2876" rx="10" transform="matrix(-1 0 0 1 496.278 138)" fill="#333333"/>
<path d="M489.681 161.288H480.257L485.108 165.596C487.31 167.551 490.717 165.494 490.013 162.635L489.681 161.288Z" fill="#333333"/>
</g>
<rect width="100" height="47" rx="10" transform="matrix(-1 0 0 1 519 120)" fill="#262626"/>
<path d="M507.305 166.378H490.598L504.74 180.677C506.85 182.81 510.439 180.866 509.805 177.933L507.305 166.378Z" fill="#262626"/>
<rect x="64" y="64" width="117" height="13" rx="6.5" fill="#262626" fill-opacity="0.1"/>
<rect x="435" y="137" width="67" height="13" rx="6.5" fill="white" fill-opacity="0.1"/>
<rect x="64" y="85" width="58" height="13" rx="6.5" fill="#262626" fill-opacity="0.1"/>
<defs>
<filter id="filter0_f" x="0.204834" y="0.470703" width="257.922" height="184.567" filterUnits="userSpaceOnUse" color-interpolation-filters="sRGB">
<feFlood flood-opacity="0" result="BackgroundImageFix"/>
<feBlend mode="normal" in="SourceGraphic" in2="BackgroundImageFix" result="shape"/>
<feGaussianBlur stdDeviation="35" result="effect1_foregroundBlur"/>
</filter>
<filter id="filter1_f" x="349" y="68" width="217.278" height="168.365" filterUnits="userSpaceOnUse" color-interpolation-filters="sRGB">
<feFlood flood-opacity="0" result="BackgroundImageFix"/>
<feBlend mode="normal" in="SourceGraphic" in2="BackgroundImageFix" result="shape"/>
<feGaussianBlur stdDeviation="35" result="effect1_foregroundBlur"/>
</filter>
<linearGradient id="paint0_linear" x1="227.051" y1="246.935" x2="149.319" y2="246.935" gradientUnits="userSpaceOnUse">
<stop stop-color="#79D1C2"/>
<stop offset="1" stop-color="#A7DA4E"/>
</linearGradient>
<linearGradient id="paint1_linear" x1="227.051" y1="246.934" x2="149.319" y2="246.934" gradientUnits="userSpaceOnUse">
<stop stop-color="#79D1C2"/>
<stop offset="1" stop-color="#A7DA4E"/>
</linearGradient>
<linearGradient id="paint2_linear" x1="227.051" y1="246.935" x2="149.319" y2="246.935" gradientUnits="userSpaceOnUse">
<stop stop-color="#79D1C2"/>
<stop offset="1" stop-color="#A7DA4E"/>
</linearGradient>
<linearGradient id="paint3_linear" x1="227.051" y1="252.245" x2="149.318" y2="252.245" gradientUnits="userSpaceOnUse">
<stop stop-color="#79D1C2"/>
<stop offset="1" stop-color="#A7DA4E"/>
</linearGradient>
<linearGradient id="paint4_linear" x1="227.051" y1="237.375" x2="149.319" y2="237.375" gradientUnits="userSpaceOnUse">
<stop stop-color="#79D1C2"/>
<stop offset="1" stop-color="#A7DA4E"/>
</linearGradient>
<linearGradient id="paint5_linear" x1="227.051" y1="259.553" x2="149.319" y2="259.553" gradientUnits="userSpaceOnUse">
<stop stop-color="#79D1C2"/>
<stop offset="1" stop-color="#A7DA4E"/>
</linearGradient>
<linearGradient id="paint6_linear" x1="227.051" y1="246.934" x2="149.319" y2="246.934" gradientUnits="userSpaceOnUse">
<stop stop-color="#79D1C2"/>
<stop offset="1" stop-color="#A7DA4E"/>
</linearGradient>
<linearGradient id="paint7_linear" x1="346.424" y1="246.935" x2="424.157" y2="246.935" gradientUnits="userSpaceOnUse">
<stop stop-color="#79D1C2"/>
<stop offset="1" stop-color="#A7DA4E"/>
</linearGradient>
<linearGradient id="paint8_linear" x1="346.425" y1="246.934" x2="424.156" y2="246.934" gradientUnits="userSpaceOnUse">
<stop stop-color="#79D1C2"/>
<stop offset="1" stop-color="#A7DA4E"/>
</linearGradient>
<linearGradient id="paint9_linear" x1="346.424" y1="246.935" x2="424.157" y2="246.935" gradientUnits="userSpaceOnUse">
<stop stop-color="#79D1C2"/>
<stop offset="1" stop-color="#A7DA4E"/>
</linearGradient>
<linearGradient id="paint10_linear" x1="346.424" y1="252.245" x2="424.156" y2="252.245" gradientUnits="userSpaceOnUse">
<stop stop-color="#79D1C2"/>
<stop offset="1" stop-color="#A7DA4E"/>
</linearGradient>
<linearGradient id="paint11_linear" x1="346.424" y1="237.375" x2="424.157" y2="237.375" gradientUnits="userSpaceOnUse">
<stop stop-color="#79D1C2"/>
<stop offset="1" stop-color="#A7DA4E"/>
</linearGradient>
<linearGradient id="paint12_linear" x1="346.424" y1="259.553" x2="424.157" y2="259.553" gradientUnits="userSpaceOnUse">
<stop stop-color="#79D1C2"/>
<stop offset="1" stop-color="#A7DA4E"/>
</linearGradient>
<linearGradient id="paint13_linear" x1="346.425" y1="246.934" x2="424.157" y2="246.934" gradientUnits="userSpaceOnUse">
<stop stop-color="#79D1C2"/>
<stop offset="1" stop-color="#A7DA4E"/>
</linearGradient>
<linearGradient id="paint14_linear" x1="286.738" y1="288.017" x2="286.738" y2="132.586" gradientUnits="userSpaceOnUse">
<stop stop-color="#79D1C2"/>
<stop offset="1" stop-color="#A7DA4E"/>
</linearGradient>
</defs>
</svg>
