<svg width="22" height="10" viewBox="0 0 22 10" fill="none" xmlns="http://www.w3.org/2000/svg">
<path d="M18.3772 2.67383H2.62945C2.28148 2.67383 2 2.39199 2 2.04359V0.63127C2 0.28287 2.28148 -1.14441e-05 2.62945 -1.14441e-05H18.3772C18.7252 -1.14441e-05 19.0077 0.28287 19.0077 0.63127V2.04359C19.0077 2.39199 18.7252 2.67383 18.3772 2.67383Z" fill="#DB4437"/>
<path d="M20.532 4H4.47572C4.21293 4 4 3.78681 4 3.52369V2.94858C4 2.68546 4.21293 2.47227 4.47572 2.47227H20.532C20.7948 2.47227 21.0077 2.68546 21.0077 2.94858V3.52369C21.0077 3.78681 20.7948 4 20.532 4Z" fill="#768FDB"/>
<path d="M0.761366 4.78913V6.43753H0.356272C0.158919 6.43753 0 6.61433 0 6.83273V6.89929C0 7.11665 0.158919 7.29346 0.356272 7.29346H17.6257C17.8542 7.29346 18.0402 7.08753 18.0402 6.83377V4.45945C18.0402 4.20569 17.8542 3.99977 17.6257 3.99977H0.356272C0.158919 3.99977 0 4.17657 0 4.39497C0 4.61233 0.158919 4.78913 0.356272 4.78913H0.761366" fill="#0F9D58"/>
<path d="M0.700195 6.4502H15.7894C15.965 6.4502 16.1073 6.30772 16.1073 6.13196V5.12005C16.1073 4.9443 15.965 4.80182 15.7894 4.80182H0.700195V6.4502" fill="white"/>
<path d="M20.2788 7.71246V9.20279H20.6839C20.8812 9.20279 21.0401 9.36295 21.0401 9.55952V9.61984C21.0401 9.8164 20.8812 9.97656 20.6839 9.97656H3.41444C3.18592 9.97656 3 9.7904 3 9.5616V7.41501C3 7.18621 3.18488 7.00005 3.41444 7.00005H20.6839C20.8812 7.00005 21.0401 7.15917 21.0401 7.35677C21.0401 7.55333 20.8812 7.71246 20.6839 7.71246H20.2788" fill="#DB4437"/>
<path d="M20.307 9.2002H5.20321C5.03597 9.2002 4.8999 9.065 4.8999 8.89756V8.01358C4.8999 7.84615 5.03597 7.71095 5.20321 7.71095H20.307V9.2002Z" fill="white"/>
</svg>
