<svg width="171" height="148" viewBox="0 0 171 148" fill="none" xmlns="http://www.w3.org/2000/svg">
<path d="M129.348 52.2922C129.348 28.0106 109.705 8.32372 85.4624 8.29014C61.5532 8.25656 41.8875 27.5489 41.4583 51.4848C41.2722 61.9552 44.7379 71.6064 50.6649 79.2498C58.1629 88.9212 62.3261 100.768 62.3261 113.011V113.228H108.473V113.013C108.473 100.751 112.666 88.9044 120.166 79.2096C125.922 71.7709 129.348 62.432 129.348 52.2922Z" fill="#FFC01D"/>
<path d="M106.912 131.262C106.912 132.779 106.654 134.248 106.166 135.645C103.728 142.65 95.5911 147.797 85.9251 147.797C76.2625 147.797 68.1239 142.65 65.6877 135.645C65.1998 134.248 64.9399 132.779 64.9399 131.262H106.912Z" fill="#565656"/>
<path d="M106.912 128.498C106.912 130.016 106.654 131.485 106.166 132.881H65.6877C65.1998 131.485 64.9399 130.016 64.9399 128.498H106.912Z" fill="black"/>
<path d="M104.674 130.229H66.3106C61.7384 130.229 58.0312 126.518 58.0312 121.94V121.591C58.0312 117.013 61.7384 113.299 66.3106 113.299H104.674C109.247 113.299 112.956 117.013 112.956 121.591V121.94C112.956 126.518 109.247 130.229 104.674 130.229Z" fill="#565656"/>
<path d="M135.826 85.0411L147.261 93.7539C148.889 94.9945 149.205 97.3196 147.965 98.9497C146.726 100.58 144.404 100.895 142.776 99.6548L131.341 90.9437C129.713 89.7031 129.398 87.3763 130.635 85.7462C131.874 84.1178 134.198 83.8005 135.826 85.0411Z" fill="#F4B400"/>
<path d="M24.2213 95.8225L32.9341 84.3876C34.1747 82.7596 36.4998 82.4444 38.1299 83.6834C39.76 84.9225 40.0756 87.2447 38.835 88.8727L30.1238 100.308C28.8832 101.936 26.5565 102.251 24.9264 101.014C23.298 99.7744 22.9807 97.4506 24.2213 95.8225Z" fill="#FFC01D"/>
<path d="M167.296 53.0127H152.927C150.882 53.0127 149.224 51.3524 149.224 49.3043C149.224 47.2562 150.882 45.5959 152.927 45.5959H167.296C169.342 45.5959 171 47.2562 171 49.3043C171 51.3524 169.342 53.0127 167.296 53.0127Z" fill="#FFC01D"/>
<path d="M18.0727 53.0127H3.70375C1.65823 53.0127 0 51.3524 0 49.3043C0 47.2562 1.65823 45.5959 3.70375 45.5959H18.0727C20.1183 45.5959 21.7765 47.2562 21.7765 49.3043C21.7765 51.3524 20.1183 53.0127 18.0727 53.0127Z" fill="#FFC01D"/>
<path d="M135.826 15.3716L147.261 6.65879C148.889 5.41986 149.205 3.09309 147.965 1.46301C146.726 -0.167068 144.404 -0.482676 142.776 0.757932L131.341 9.46904C129.713 10.7097 129.398 13.0364 130.635 14.6665C131.874 16.2966 134.198 16.6122 135.826 15.3716Z" fill="#FFC01D"/>
<path d="M40.2422 12.8958L31.5294 1.46089C30.2905 -0.167156 27.9637 -0.48237 26.3336 0.756689C24.7035 1.99575 24.3879 4.31792 25.6285 5.94597L34.3397 17.3809C35.5803 19.0089 37.907 19.3241 39.5371 18.0867C41.1672 16.8477 41.4828 14.5238 40.2422 12.8958Z" fill="#FFC01D"/>
<path d="M85.7825 57.689C84.5116 59.8496 83.4553 62.2787 82.7125 64.7986C81.4164 69.1952 81.2404 73.4089 82.2413 76.0681C82.9623 77.9886 84.1896 78.9875 85.9921 79.1235C87.8532 79.2628 89.0235 78.499 89.6774 76.7195C91.1663 72.6669 89.3588 64.3889 85.7825 57.689ZM91.9493 113.27C91.8269 113.27 91.7028 113.249 91.5804 113.206C90.9936 113.001 90.6851 112.361 90.8879 111.774C90.9399 111.624 96.1225 96.6749 99.8883 81.4519C106.563 54.4674 103.128 50.0825 101.342 49.4496C96.089 47.5862 91.9057 50.341 89.3219 52.9801C88.5641 53.7556 87.8364 54.6303 87.1506 55.5838C88.2723 57.5278 89.2834 59.6733 90.1318 61.9413C92.459 68.1661 93.0777 73.9814 91.7866 77.4951C90.7907 80.2063 88.6731 81.5812 85.8244 81.3663C83.1367 81.1631 81.17 79.6053 80.1388 76.8605C78.9551 73.7128 79.1077 69.0844 80.558 64.1606C81.4734 61.0532 82.8433 58.0617 84.5032 55.4848C82.9539 53.0304 81.1582 50.9185 79.2116 49.4966C76.3194 47.3864 73.6032 47.2941 71.1384 49.223C66.0498 53.2067 65.8536 65.188 70.5751 83.8693C74.2151 98.2731 79.5553 111.591 79.609 111.723C79.8404 112.299 79.562 112.954 78.9869 113.187C78.4118 113.419 77.7579 113.14 77.5249 112.564C77.4712 112.43 72.0807 98.9916 68.4021 84.4418C63.3704 64.5383 63.8248 52.092 69.7552 47.4502C73.0113 44.9018 76.8408 44.9824 80.5345 47.6785C82.3872 49.0299 84.2165 51.0562 85.8764 53.534C86.4649 52.7685 87.0819 52.055 87.7174 51.4054C92.018 47.0137 97.1218 45.5666 102.091 47.3276C105.185 48.4255 106.454 52.5939 105.971 60.0745C105.616 65.5909 104.301 72.9708 102.066 82.0042C98.2753 97.328 93.0626 112.363 93.0106 112.514C92.8497 112.977 92.4137 113.27 91.9493 113.27Z" fill="white"/>
</svg>
