<svg width="480" height="367" viewBox="0 0 480 367" fill="none" xmlns="http://www.w3.org/2000/svg">
<g filter="url(#filter0_f)">
<rect x="100" y="115" width="280" height="152" rx="10" fill="#091221" fill-opacity="0.7"/>
</g>
<rect x="45" width="378" height="235" rx="10" fill="white"/>
<path d="M75.59 52H79.43V31.87H75.59V52ZM93.5246 29.65V37.99C92.3246 37.21 90.8846 36.76 89.3546 36.76C85.0646 36.76 81.6146 40.24 81.6146 44.5C81.6146 48.76 85.0646 52.24 89.3546 52.24C90.8846 52.24 92.3246 51.79 93.5246 51.01V52H97.3646V29.65H93.5246ZM89.4746 48.64C87.1946 48.64 85.5746 46.9 85.5746 44.5C85.5746 42.1 87.1946 40.36 89.4746 40.36C91.7246 40.36 93.3746 42.1 93.3746 44.5C93.3746 46.9 91.7246 48.64 89.4746 48.64ZM111.873 46.06C111.663 46.69 109.923 48.58 107.343 48.58C105.783 48.58 104.553 47.65 104.013 46.42L115.053 44.41C115.083 44.29 115.053 44.17 115.053 44.02C114.903 39.88 111.513 36.58 107.343 36.58C103.053 36.58 99.6029 40.03 99.6029 44.32C99.6029 45.28 99.7829 46.24 100.143 47.11C101.313 50.14 104.343 52.06 107.343 52.06C112.563 52.06 114.813 47.77 115.083 47.08L111.873 46.06ZM103.563 43.03C103.893 41.41 105.273 40.12 106.863 40C108.423 39.85 109.983 40.78 110.703 42.22L103.473 43.51L103.563 43.03ZM128.915 37V37.99C127.715 37.21 126.275 36.76 124.745 36.76C120.455 36.76 117.005 40.24 117.005 44.5C117.005 48.76 120.455 52.24 124.745 52.24C126.275 52.24 127.715 51.79 128.915 51.01V52H132.755V37H128.915ZM124.865 48.64C122.615 48.64 120.965 46.9 120.965 44.5C120.965 42.1 122.615 40.36 124.865 40.36C127.115 40.36 128.765 42.1 128.765 44.5C128.765 46.9 127.115 48.64 124.865 48.64ZM141.796 52.24C145.726 52.24 147.886 50.35 147.886 47.68C147.886 42.7 138.886 42.91 138.886 41.32C138.886 40.57 139.846 40.09 141.286 40.09C143.806 40.09 145.666 41.92 145.666 41.92L148.096 39.73C148.096 39.73 145.636 36.76 141.376 36.76C137.446 36.76 135.316 38.65 135.316 41.32C135.316 46.3 144.286 46.09 144.286 47.68C144.286 48.43 143.356 48.91 141.886 48.91C139.366 48.91 137.536 47.08 137.536 47.08L135.106 49.27C135.106 49.27 137.566 52.24 141.796 52.24Z" fill="#252525"/>
<path d="M84.044 102H86.492L81.596 89.922H79.436L74.54 102H76.97L78.086 99.084H82.928L84.044 102ZM78.968 96.78L80.516 92.748L82.046 96.78H78.968ZM91.9571 92.856C91.0571 92.856 90.1931 93.252 89.5451 93.9V93H87.2411V102H89.5451V97.05C89.5451 95.844 90.3371 94.98 91.4351 94.98C92.5331 94.98 93.3071 95.826 93.3071 97.032V102H95.6651V96.978C95.6651 94.638 94.1711 92.856 91.9571 92.856ZM104.137 88.59V93.594C103.417 93.126 102.553 92.856 101.635 92.856C99.0606 92.856 96.9906 94.944 96.9906 97.5C96.9906 100.056 99.0606 102.144 101.635 102.144C102.553 102.144 103.417 101.874 104.137 101.406V102H106.441V88.59H104.137ZM101.707 99.984C100.339 99.984 99.3666 98.94 99.3666 97.5C99.3666 96.06 100.339 95.016 101.707 95.016C103.057 95.016 104.047 96.06 104.047 97.5C104.047 98.94 103.057 99.984 101.707 99.984ZM113.104 92.856C112.204 92.856 111.322 93.252 110.674 93.9V93H108.37V102H110.674V97.05C110.674 95.844 111.466 94.98 112.564 94.98C112.87 94.98 113.302 95.196 113.716 95.52L114.346 93.108C113.968 92.946 113.554 92.856 113.104 92.856ZM119.072 102.144C121.646 102.144 123.716 100.056 123.716 97.5C123.716 94.944 121.646 92.856 119.072 92.856C116.516 92.856 114.428 94.944 114.428 97.5C114.428 100.056 116.516 102.144 119.072 102.144ZM119.162 99.984C117.794 99.984 116.822 98.94 116.822 97.5C116.822 96.06 117.794 95.016 119.162 95.016C120.512 95.016 121.502 96.06 121.502 97.5C121.502 98.94 120.512 99.984 119.162 99.984ZM126.47 91.38C127.154 91.38 127.73 90.822 127.73 90.12C127.73 89.436 127.154 88.878 126.47 88.878C125.786 88.878 125.21 89.436 125.21 90.12C125.21 90.822 125.786 91.38 126.47 91.38ZM125.318 102H127.622V93H125.318V102ZM136.34 88.59V93.594C135.62 93.126 134.756 92.856 133.838 92.856C131.264 92.856 129.194 94.944 129.194 97.5C129.194 100.056 131.264 102.144 133.838 102.144C134.756 102.144 135.62 101.874 136.34 101.406V102H138.644V88.59H136.34ZM133.91 99.984C132.542 99.984 131.57 98.94 131.57 97.5C131.57 96.06 132.542 95.016 133.91 95.016C135.26 95.016 136.25 96.06 136.25 97.5C136.25 98.94 135.26 99.984 133.91 99.984ZM158.801 89.922L156.335 98.256L153.725 89.922H151.619L149.027 98.256L146.543 89.922H144.167L147.839 102H150.197L152.681 93.522L155.147 102H157.523L161.177 89.922H158.801ZM165.18 102.144C167.754 102.144 169.824 100.056 169.824 97.5C169.824 94.944 167.754 92.856 165.18 92.856C162.624 92.856 160.536 94.944 160.536 97.5C160.536 100.056 162.624 102.144 165.18 102.144ZM165.27 99.984C163.902 99.984 162.93 98.94 162.93 97.5C162.93 96.06 163.902 95.016 165.27 95.016C166.62 95.016 167.61 96.06 167.61 97.5C167.61 98.94 166.62 99.984 165.27 99.984ZM175.84 92.856C174.94 92.856 174.058 93.252 173.41 93.9V93H171.106V102H173.41V97.05C173.41 95.844 174.202 94.98 175.3 94.98C175.606 94.98 176.038 95.196 176.452 95.52L177.082 93.108C176.704 92.946 176.29 92.856 175.84 92.856ZM185.679 92.982H183.339L180.477 96.546V88.59H178.173V102H180.477V99.444L181.251 98.472L183.357 102H185.679L182.583 96.816L185.679 92.982ZM190.44 102.144C192.798 102.144 194.094 101.01 194.094 99.408C194.094 96.42 188.694 96.546 188.694 95.592C188.694 95.142 189.27 94.854 190.134 94.854C191.646 94.854 192.762 95.952 192.762 95.952L194.22 94.638C194.22 94.638 192.744 92.856 190.188 92.856C187.83 92.856 186.552 93.99 186.552 95.592C186.552 98.58 191.934 98.454 191.934 99.408C191.934 99.858 191.376 100.146 190.494 100.146C188.982 100.146 187.884 99.048 187.884 99.048L186.426 100.362C186.426 100.362 187.902 102.144 190.44 102.144ZM200.485 92.856C199.585 92.856 198.703 93.252 198.055 93.918V88.59H195.751V102H198.055V97.05C198.055 95.826 198.847 94.962 199.945 94.962C201.043 94.962 201.835 95.844 201.835 97.05V102H204.175V96.978C204.175 94.656 202.699 92.856 200.485 92.856ZM210.144 102.144C212.718 102.144 214.788 100.056 214.788 97.5C214.788 94.944 212.718 92.856 210.144 92.856C207.588 92.856 205.5 94.944 205.5 97.5C205.5 100.056 207.588 102.144 210.144 102.144ZM210.234 99.984C208.866 99.984 207.894 98.94 207.894 97.5C207.894 96.06 208.866 95.016 210.234 95.016C211.584 95.016 212.574 96.06 212.574 97.5C212.574 98.94 211.584 99.984 210.234 99.984ZM221.071 92.856C220.135 92.856 219.271 93.126 218.551 93.594V93H216.247V106.392H218.551V101.388C219.271 101.874 220.135 102.144 221.071 102.144C223.645 102.144 225.715 100.056 225.715 97.5C225.715 94.926 223.645 92.856 221.071 92.856ZM220.999 99.966C219.631 99.966 218.659 98.94 218.659 97.5C218.659 96.042 219.631 95.016 220.999 95.016C222.349 95.016 223.339 96.042 223.339 97.5C223.339 98.94 222.349 99.966 220.999 99.966Z" fill="#878787"/>
<path d="M80.696 166.144C83 166.144 84.71 165.1 85.7 163.498L83.612 162.184C83 163.264 81.902 163.984 80.696 163.984C78.59 163.984 77.222 162.31 77.222 159.97C77.222 157.612 78.59 155.938 80.696 155.938C81.884 155.938 82.982 156.658 83.612 157.756L85.7 156.424C84.71 154.822 83 153.778 80.696 153.778C76.952 153.778 74.72 156.55 74.72 159.97C74.72 163.372 76.952 166.144 80.696 166.144ZM90.8768 166.144C93.4508 166.144 95.5208 164.056 95.5208 161.5C95.5208 158.944 93.4508 156.856 90.8768 156.856C88.3208 156.856 86.2328 158.944 86.2328 161.5C86.2328 164.056 88.3208 166.144 90.8768 166.144ZM90.9668 163.984C89.5988 163.984 88.6268 162.94 88.6268 161.5C88.6268 160.06 89.5988 159.016 90.9668 159.016C92.3168 159.016 93.3068 160.06 93.3068 161.5C93.3068 162.94 92.3168 163.984 90.9668 163.984ZM103.68 152.59V157.594C102.96 157.126 102.096 156.856 101.178 156.856C98.6036 156.856 96.5336 158.944 96.5336 161.5C96.5336 164.056 98.6036 166.144 101.178 166.144C102.096 166.144 102.96 165.874 103.68 165.406V166H105.984V152.59H103.68ZM101.25 163.984C99.8816 163.984 98.9096 162.94 98.9096 161.5C98.9096 160.06 99.8816 159.016 101.25 159.016C102.6 159.016 103.59 160.06 103.59 161.5C103.59 162.94 102.6 163.984 101.25 163.984ZM114.689 162.436C114.563 162.814 113.519 163.948 111.971 163.948C111.035 163.948 110.297 163.39 109.973 162.652L116.597 161.446C116.615 161.374 116.597 161.302 116.597 161.212C116.507 158.728 114.473 156.748 111.971 156.748C109.397 156.748 107.327 158.818 107.327 161.392C107.327 161.968 107.435 162.544 107.651 163.066C108.353 164.884 110.171 166.036 111.971 166.036C115.103 166.036 116.453 163.462 116.615 163.048L114.689 162.436ZM109.703 160.618C109.901 159.646 110.729 158.872 111.683 158.8C112.619 158.71 113.555 159.268 113.987 160.132L109.649 160.906L109.703 160.618ZM118.302 166H122.658C125.61 166 127.356 164.38 127.356 162.4C127.356 161.428 126.906 160.564 126.078 159.97C126.906 159.358 127.356 158.494 127.356 157.504C127.356 155.524 125.61 153.922 122.658 153.922H118.302V166ZM120.606 159.052V156.082H122.658C124.116 156.082 125.034 156.694 125.034 157.558C125.034 158.422 124.116 159.052 122.658 159.052H120.606ZM120.606 163.84V160.888H122.658C124.116 160.888 125.034 161.5 125.034 162.346C125.034 163.21 124.116 163.84 122.658 163.84H120.606ZM135.002 157V161.95C135.002 163.156 134.21 164.02 133.112 164.02C132.014 164.02 131.24 163.174 131.24 161.968V157H128.882V162.022C128.882 164.362 130.376 166.144 132.59 166.144C133.49 166.144 134.354 165.748 135.002 165.1V166H137.306V157H135.002ZM145.85 152.59V157.594C145.13 157.126 144.266 156.856 143.348 156.856C140.774 156.856 138.704 158.944 138.704 161.5C138.704 164.056 140.774 166.144 143.348 166.144C144.266 166.144 145.13 165.874 145.85 165.406V166H148.154V152.59H145.85ZM143.42 163.984C142.052 163.984 141.08 162.94 141.08 161.5C141.08 160.06 142.052 159.016 143.42 159.016C144.77 159.016 145.76 160.06 145.76 161.5C145.76 162.94 144.77 163.984 143.42 163.984ZM156.643 152.59V157.594C155.923 157.126 155.059 156.856 154.141 156.856C151.567 156.856 149.497 158.944 149.497 161.5C149.497 164.056 151.567 166.144 154.141 166.144C155.059 166.144 155.923 165.874 156.643 165.406V166H158.947V152.59H156.643ZM154.213 163.984C152.845 163.984 151.873 162.94 151.873 161.5C151.873 160.06 152.845 159.016 154.213 159.016C155.563 159.016 156.553 160.06 156.553 161.5C156.553 162.94 155.563 163.984 154.213 163.984ZM166.353 157L164.445 162.094L162.429 157H160.125L163.311 165.082L161.673 169.438H163.977L168.657 157H166.353Z" fill="#878787"/>
<path d="M80.722 185.922V190.764H76.258V185.922H73.954V198H76.258V193.068H80.722V198H83.026V185.922H80.722ZM91.4648 189V189.594C90.7448 189.126 89.8808 188.856 88.9628 188.856C86.3888 188.856 84.3188 190.944 84.3188 193.5C84.3188 196.056 86.3888 198.144 88.9628 198.144C89.8808 198.144 90.7448 197.874 91.4648 197.406V198H93.7688V189H91.4648ZM89.0348 195.984C87.6848 195.984 86.6948 194.94 86.6948 193.5C86.6948 192.06 87.6848 191.016 89.0348 191.016C90.3848 191.016 91.3748 192.06 91.3748 193.5C91.3748 194.94 90.3848 195.984 89.0348 195.984ZM99.8085 198.144C101.536 198.144 103.048 197.208 103.84 195.786L101.77 194.778C101.284 195.516 100.546 195.984 99.8085 195.984C98.4585 195.984 97.4685 194.94 97.4685 193.5C97.4685 192.06 98.4585 191.016 99.8085 191.016C100.546 191.016 101.284 191.484 101.77 192.222L103.84 191.214C103.048 189.792 101.536 188.856 99.8085 188.856C97.2345 188.856 95.1645 190.944 95.1645 193.5C95.1645 196.056 97.2345 198.144 99.8085 198.144ZM112.837 188.982H110.497L107.635 192.546V184.59H105.331V198H107.635V195.444L108.409 194.472L110.515 198H112.837L109.741 192.816L112.837 188.982ZM120.082 189V189.594C119.362 189.126 118.498 188.856 117.58 188.856C115.006 188.856 112.936 190.944 112.936 193.5C112.936 196.056 115.006 198.144 117.58 198.144C118.498 198.144 119.362 197.874 120.082 197.406V198H122.386V189H120.082ZM117.652 195.984C116.302 195.984 115.312 194.94 115.312 193.5C115.312 192.06 116.302 191.016 117.652 191.016C119.002 191.016 119.992 192.06 119.992 193.5C119.992 194.94 119.002 195.984 117.652 195.984ZM128.889 195.228C128.889 195.516 128.457 196.002 127.845 196.002C127.341 196.002 126.909 195.552 126.909 194.814V191.07H129.033V189H126.909V185.94L124.605 185.994V189H123.507V191.07H124.605V195.516C124.605 197.388 125.793 198.144 127.341 198.144C128.907 198.144 129.879 197.064 129.879 197.064L128.889 195.228ZM135.782 188.856C134.882 188.856 134 189.252 133.352 189.918V184.59H131.048V198H133.352V193.05C133.352 191.826 134.144 190.962 135.242 190.962C136.34 190.962 137.132 191.844 137.132 193.05V198H139.472V192.978C139.472 190.656 137.996 188.856 135.782 188.856ZM145.441 198.144C148.015 198.144 150.085 196.056 150.085 193.5C150.085 190.944 148.015 188.856 145.441 188.856C142.885 188.856 140.797 190.944 140.797 193.5C140.797 196.056 142.885 198.144 145.441 198.144ZM145.531 195.984C144.163 195.984 143.191 194.94 143.191 193.5C143.191 192.06 144.163 191.016 145.531 191.016C146.881 191.016 147.871 192.06 147.871 193.5C147.871 194.94 146.881 195.984 145.531 195.984ZM156.084 188.856C155.184 188.856 154.32 189.252 153.672 189.9V189H151.368V198H153.672V193.05C153.672 191.844 154.464 190.98 155.562 190.98C156.66 190.98 157.434 191.826 157.434 193.032V198H159.792V192.978C159.792 190.638 158.298 188.856 156.084 188.856ZM174.354 188.226V185.922H165.642V198H174.354V195.696H167.946V193.086H171.474V190.782H167.946V188.226H174.354ZM181.05 189L179.088 194.67L177.126 189H174.822L177.936 198H180.24L183.354 189H181.05ZM190.821 194.436C190.695 194.814 189.651 195.948 188.103 195.948C187.167 195.948 186.429 195.39 186.105 194.652L192.729 193.446C192.747 193.374 192.729 193.302 192.729 193.212C192.639 190.728 190.605 188.748 188.103 188.748C185.529 188.748 183.459 190.818 183.459 193.392C183.459 193.968 183.567 194.544 183.783 195.066C184.485 196.884 186.303 198.036 188.103 198.036C191.235 198.036 192.585 195.462 192.747 195.048L190.821 194.436ZM185.835 192.618C186.033 191.646 186.861 190.872 187.815 190.8C188.751 190.71 189.687 191.268 190.119 192.132L185.781 192.906L185.835 192.618ZM198.729 188.856C197.829 188.856 196.965 189.252 196.317 189.9V189H194.013V198H196.317V193.05C196.317 191.844 197.109 190.98 198.207 190.98C199.305 190.98 200.079 191.826 200.079 193.032V198H202.437V192.978C202.437 190.638 200.943 188.856 198.729 188.856ZM208.87 195.228C208.87 195.516 208.438 196.002 207.826 196.002C207.322 196.002 206.89 195.552 206.89 194.814V191.07H209.014V189H206.89V185.94L204.586 185.994V189H203.488V191.07H204.586V195.516C204.586 197.388 205.774 198.144 207.322 198.144C208.888 198.144 209.86 197.064 209.86 197.064L208.87 195.228Z" fill="#878787"/>
<path d="M79.058 134.144C81.272 134.144 83.126 132.722 83.126 130.742C83.126 127.304 77.222 126.998 77.222 125.162C77.222 124.424 77.924 123.938 79.004 123.938C80.408 123.938 81.65 125.306 81.794 125.45L83.36 123.902C83.18 123.704 81.272 121.778 79.022 121.778C76.808 121.796 74.972 123.2 74.972 125.198C74.972 128.618 80.858 128.942 80.858 130.76C80.858 131.498 80.156 131.984 79.076 131.984C77.654 131.984 76.412 130.598 76.304 130.472L74.738 132.02C74.9 132.218 76.826 134.144 79.058 134.144ZM88.6268 134.144C91.2008 134.144 93.2708 132.056 93.2708 129.5C93.2708 126.944 91.2008 124.856 88.6268 124.856C86.0708 124.856 83.9828 126.944 83.9828 129.5C83.9828 132.056 86.0708 134.144 88.6268 134.144ZM88.7168 131.984C87.3488 131.984 86.3768 130.94 86.3768 129.5C86.3768 128.06 87.3488 127.016 88.7168 127.016C90.0668 127.016 91.0568 128.06 91.0568 129.5C91.0568 130.94 90.0668 131.984 88.7168 131.984ZM99.0168 124.946H97.5048V123.092C97.5048 122.57 97.6668 122.426 97.9728 122.426C98.2068 122.426 98.4948 122.516 98.4948 122.516L98.9628 120.77C98.9628 120.77 98.1888 120.464 97.0908 120.464C95.9208 120.464 95.2008 121.454 95.2008 122.408V124.946H94.1388V126.71H95.2008V134H97.5048V126.71H99.0168V124.946ZM105.227 131.228C105.227 131.516 104.795 132.002 104.183 132.002C103.679 132.002 103.247 131.552 103.247 130.814V127.07H105.371V125H103.247V121.94L100.943 121.994V125H99.8453V127.07H100.943V131.516C100.943 133.388 102.131 134.144 103.679 134.144C105.245 134.144 106.217 133.064 106.217 133.064L105.227 131.228ZM115.779 134.144C117.993 134.144 119.847 132.722 119.847 130.742C119.847 127.304 113.943 126.998 113.943 125.162C113.943 124.424 114.645 123.938 115.725 123.938C117.129 123.938 118.371 125.306 118.515 125.45L120.081 123.902C119.901 123.704 117.993 121.778 115.743 121.778C113.529 121.796 111.693 123.2 111.693 125.198C111.693 128.618 117.579 128.942 117.579 130.76C117.579 131.498 116.877 131.984 115.797 131.984C114.375 131.984 113.133 130.598 113.025 130.472L111.459 132.02C111.621 132.218 113.547 134.144 115.779 134.144ZM129.112 124.982H126.772L123.91 128.546V120.59H121.606V134H123.91V131.444L124.684 130.472L126.79 134H129.112L126.016 128.816L129.112 124.982ZM131.761 123.38C132.445 123.38 133.021 122.822 133.021 122.12C133.021 121.436 132.445 120.878 131.761 120.878C131.077 120.878 130.501 121.436 130.501 122.12C130.501 122.822 131.077 123.38 131.761 123.38ZM130.609 134H132.913V125H130.609V134ZM134.931 134H137.235V120.59H134.931V134ZM139.132 134H141.436V120.59H139.132V134ZM146.969 134.144C149.327 134.144 150.623 133.01 150.623 131.408C150.623 128.42 145.223 128.546 145.223 127.592C145.223 127.142 145.799 126.854 146.663 126.854C148.175 126.854 149.291 127.952 149.291 127.952L150.749 126.638C150.749 126.638 149.273 124.856 146.717 124.856C144.359 124.856 143.081 125.99 143.081 127.592C143.081 130.58 148.463 130.454 148.463 131.408C148.463 131.858 147.905 132.146 147.023 132.146C145.511 132.146 144.413 131.048 144.413 131.048L142.955 132.362C142.955 132.362 144.431 134.144 146.969 134.144ZM156.27 134H158.574V129.968H160.644C163.578 129.968 165.324 128.168 165.324 125.936C165.324 123.722 163.578 121.922 160.644 121.922H156.27V134ZM158.574 127.79V124.082H160.644C162.084 124.082 163.002 124.856 163.002 125.936C163.002 127.016 162.084 127.79 160.644 127.79H158.574ZM171.463 124.856C170.563 124.856 169.681 125.252 169.033 125.9V125H166.729V134H169.033V129.05C169.033 127.844 169.825 126.98 170.923 126.98C171.229 126.98 171.661 127.196 172.075 127.52L172.705 125.108C172.327 124.946 171.913 124.856 171.463 124.856ZM180.15 130.436C180.024 130.814 178.98 131.948 177.432 131.948C176.496 131.948 175.758 131.39 175.434 130.652L182.058 129.446C182.076 129.374 182.058 129.302 182.058 129.212C181.968 126.728 179.934 124.748 177.432 124.748C174.858 124.748 172.788 126.818 172.788 129.392C172.788 129.968 172.896 130.544 173.112 131.066C173.814 132.884 175.632 134.036 177.432 134.036C180.564 134.036 181.914 131.462 182.076 131.048L180.15 130.436ZM175.164 128.618C175.362 127.646 176.19 126.872 177.144 126.8C178.08 126.71 179.016 127.268 179.448 128.132L175.11 128.906L175.164 128.618ZM186.801 134.144C189.159 134.144 190.455 133.01 190.455 131.408C190.455 128.42 185.055 128.546 185.055 127.592C185.055 127.142 185.631 126.854 186.495 126.854C188.007 126.854 189.123 127.952 189.123 127.952L190.581 126.638C190.581 126.638 189.105 124.856 186.549 124.856C184.191 124.856 182.913 125.99 182.913 127.592C182.913 130.58 188.295 130.454 188.295 131.408C188.295 131.858 187.737 132.146 186.855 132.146C185.343 132.146 184.245 131.048 184.245 131.048L182.787 132.362C182.787 132.362 184.263 134.144 186.801 134.144ZM198.73 130.436C198.604 130.814 197.56 131.948 196.012 131.948C195.076 131.948 194.338 131.39 194.014 130.652L200.638 129.446C200.656 129.374 200.638 129.302 200.638 129.212C200.548 126.728 198.514 124.748 196.012 124.748C193.438 124.748 191.368 126.818 191.368 129.392C191.368 129.968 191.476 130.544 191.692 131.066C192.394 132.884 194.212 134.036 196.012 134.036C199.144 134.036 200.494 131.462 200.656 131.048L198.73 130.436ZM193.744 128.618C193.942 127.646 194.77 126.872 195.724 126.8C196.66 126.71 197.596 127.268 198.028 128.132L193.69 128.906L193.744 128.618ZM206.637 124.856C205.737 124.856 204.873 125.252 204.225 125.9V125H201.921V134H204.225V129.05C204.225 127.844 205.017 126.98 206.115 126.98C207.213 126.98 207.987 127.826 207.987 129.032V134H210.345V128.978C210.345 126.638 208.851 124.856 206.637 124.856ZM216.778 131.228C216.778 131.516 216.346 132.002 215.734 132.002C215.23 132.002 214.798 131.552 214.798 130.814V127.07H216.922V125H214.798V121.94L212.494 121.994V125H211.396V127.07H212.494V131.516C212.494 133.388 213.682 134.144 215.23 134.144C216.796 134.144 217.768 133.064 217.768 133.064L216.778 131.228ZM225.197 125V125.594C224.477 125.126 223.613 124.856 222.695 124.856C220.121 124.856 218.051 126.944 218.051 129.5C218.051 132.056 220.121 134.144 222.695 134.144C223.613 134.144 224.477 133.874 225.197 133.406V134H227.501V125H225.197ZM222.767 131.984C221.417 131.984 220.427 130.94 220.427 129.5C220.427 128.06 221.417 127.016 222.767 127.016C224.117 127.016 225.107 128.06 225.107 129.5C225.107 130.94 224.117 131.984 222.767 131.984ZM234.005 131.228C234.005 131.516 233.573 132.002 232.961 132.002C232.457 132.002 232.025 131.552 232.025 130.814V127.07H234.149V125H232.025V121.94L229.721 121.994V125H228.623V127.07H229.721V131.516C229.721 133.388 230.909 134.144 232.457 134.144C234.023 134.144 234.995 133.064 234.995 133.064L234.005 131.228ZM237.581 123.38C238.265 123.38 238.841 122.822 238.841 122.12C238.841 121.436 238.265 120.878 237.581 120.878C236.897 120.878 236.321 121.436 236.321 122.12C236.321 122.822 236.897 123.38 237.581 123.38ZM236.429 134H238.733V125H236.429V134ZM244.949 134.144C247.523 134.144 249.593 132.056 249.593 129.5C249.593 126.944 247.523 124.856 244.949 124.856C242.393 124.856 240.305 126.944 240.305 129.5C240.305 132.056 242.393 134.144 244.949 134.144ZM245.039 131.984C243.671 131.984 242.699 130.94 242.699 129.5C242.699 128.06 243.671 127.016 245.039 127.016C246.389 127.016 247.379 128.06 247.379 129.5C247.379 130.94 246.389 131.984 245.039 131.984ZM255.592 124.856C254.692 124.856 253.828 125.252 253.18 125.9V125H250.876V134H253.18V129.05C253.18 127.844 253.972 126.98 255.07 126.98C256.168 126.98 256.942 127.826 256.942 129.032V134H259.3V128.978C259.3 126.638 257.806 124.856 255.592 124.856Z" fill="#878787"/>
<rect x="369" y="84" width="22" height="22" rx="3" fill="#4285F4"/>
<rect x="369" y="116" width="22" height="22" rx="3" fill="#EEEEEE"/>
<rect x="369" y="180" width="22" height="22" rx="3" fill="#EEEEEE"/>
<rect x="369" y="148" width="22" height="22" rx="3" fill="#EEEEEE"/>
<path d="M386 91L378.438 98L375 94.8182" stroke="white" stroke-width="1.5" stroke-linecap="round" stroke-linejoin="round"/>
<defs>
<filter id="filter0_f" x="0" y="15" width="480" height="352" filterUnits="userSpaceOnUse" color-interpolation-filters="sRGB">
<feFlood flood-opacity="0" result="BackgroundImageFix"/>
<feBlend mode="normal" in="SourceGraphic" in2="BackgroundImageFix" result="shape"/>
<feGaussianBlur stdDeviation="50" result="effect1_foregroundBlur"/>
</filter>
</defs>
</svg>
