<svg width="46" height="46" viewBox="0 0 46 46" fill="none" xmlns="http://www.w3.org/2000/svg">
<path d="M23 0C10.35 0 0 10.35 0 23C0 35.65 10.35 46 23 46C35.65 46 46 35.65 46 23C46 10.35 35.765 0 23 0ZM33.5819 33.235C33.1219 33.9231 32.3169 34.155 31.625 33.695C26.22 30.36 19.435 29.6681 11.3831 31.5081C10.5819 31.7419 9.89 31.165 9.66 30.475C9.43 29.6681 10.005 28.98 10.695 28.75C19.435 26.7931 27.025 27.6 33.005 31.28C33.81 31.625 33.9231 32.5431 33.5819 33.235V33.235ZM36.3419 26.91C35.765 27.715 34.73 28.06 33.9231 27.485C27.715 23.69 18.285 22.54 11.04 24.84C10.1219 25.07 9.085 24.61 8.855 23.69C8.625 22.77 9.085 21.7331 10.005 21.5031C18.4 18.975 28.75 20.2419 35.88 24.61C36.5719 24.9569 36.915 26.105 36.3419 26.91V26.91ZM36.5719 20.47C29.21 16.1 16.905 15.64 9.89 17.8269C8.74 18.17 7.59 17.48 7.245 16.445C6.9 15.2931 7.59 14.145 8.625 13.7981C16.79 11.3831 30.245 11.8431 38.7569 16.905C39.79 17.48 40.135 18.86 39.56 19.895C38.9869 20.7019 37.605 21.0431 36.5719 20.47V20.47Z" fill="#11C40E"/>
</svg>
